HIERARCHY
ROOT hip
{
	OFFSET 0.000000 0.000000 0.000000 
	CHANNELS 6 Xposition Yposition Zposition Xrotation Zrotation Yrotation
	JOINT abdomen
	{
		OFFSET 0.000000 3.402643 0.000000 
		CHANNELS 3 Xrotation Zrotation Yrotation
		JOINT chest
		{
			OFFSET 0.000000 8.438565 -0.680529 
			CHANNELS 3 Xrotation Zrotation Yrotation
			JOINT neck
			{
				OFFSET 0.000000 10.207942 -0.272212 
				CHANNELS 3 Xrotation Zrotation Yrotation
				JOINT head
				{
					OFFSET 0.000000 3.130431 0.000000 
					CHANNELS 3 Xrotation Zrotation Yrotation
					End Site
					{
						OFFSET 0.000000 3.130435 0.000000 
					}
				}
			}
			JOINT lCollar
			{
				OFFSET 3.470700 6.669187 -0.816635 
				CHANNELS 3 Yrotation Zrotation Xrotation
				JOINT lShldr
				{
					OFFSET 3.198488 0.000000 0.000000 
					CHANNELS 3 Zrotation Yrotation Xrotation
					JOINT lForeArm
					{
						OFFSET 10.139888 0.000000 0.000000 
						CHANNELS 3 Yrotation Zrotation Xrotation
						JOINT lHand
						{
							OFFSET 8.370511 0.000000 0.000000 
							CHANNELS 3 Zrotation Yrotation Xrotation
							End Site
							{
								OFFSET 4.083176 0.000000 0.000000 
							}
						}
					}
				}
			}
			JOINT rCollar
			{
				OFFSET -3.470700 6.669187 -0.816635 
				CHANNELS 3 Yrotation Zrotation Xrotation
				JOINT rShldr
				{
					OFFSET -3.198488 0.000000 0.000000 
					CHANNELS 3 Zrotation Yrotation Xrotation
					JOINT rForeArm
					{
						OFFSET -10.139888 0.000000 0.000000 
						CHANNELS 3 Yrotation Zrotation Xrotation
						JOINT rHand
						{
							OFFSET -8.370511 0.000000 0.000000 
							CHANNELS 3 Zrotation Yrotation Xrotation
							End Site
							{
								OFFSET -4.083176 0.000000 0.000000 
							}
						}
					}
				}
			}
		}
	}
	JOINT lThigh
	{
		OFFSET 5.308129 -1.633274 1.361059 
		CHANNELS 3 Xrotation Zrotation Yrotation
		JOINT lShin
		{
			OFFSET -2.041588 -20.007561 0.000000 
			CHANNELS 3 Xrotation Zrotation Yrotation
			JOINT lFoot
			{
				OFFSET 0.000000 -19.190928 -1.224953 
				CHANNELS 3 Xrotation Yrotation Zrotation
				End Site
				{
					OFFSET 0.000000 -2.449906 4.627600 
				}
			}
		}
	}
	JOINT rThigh
	{
		OFFSET -5.308129 -1.633274 1.361059 
		CHANNELS 3 Xrotation Zrotation Yrotation
		JOINT rShin
		{
			OFFSET 2.041588 -20.007561 0.000000 
			CHANNELS 3 Xrotation Zrotation Yrotation
			JOINT rFoot
			{
				OFFSET 0.000000 -19.190928 -1.224953 
				CHANNELS 3 Xrotation Yrotation Zrotation
				End Site
				{
					OFFSET 0.000000 -2.449906 4.627600 
				}
			}
		}
	}
}
MOTION
Frames: 15
Frame Time: 0.033333
1.111535 49.333141 -1.520455 -0.078125 0.009766 -0.146498 0.000000 0.000000 0.000000 -4.677734 0.019466 0.086298 4.023361 -0.057158 0.022664 5.898438 0.009755 -0.078586 0.501038 9.916456 -3.732660 -2.908667 9.200886 0.965120 2.417947 -0.757009 2.859299 -0.424780 -6.046234 -3.326771 -0.165786 -9.245099 -3.733656 5.555262 -17.633173 10.610973 -1.638906 0.193200 -5.196021 3.189461 6.165071 -3.093280 -4.351374 4.088001 0.324619 15.644250 -3.786476 -1.660830 -11.181633 0.011289 -0.048644 -3.990066 -5.881106 -5.567202 15.415746 3.172272 -9.973389 -10.190209 -0.360145 4.116813 
1.095299 49.327232 -1.495968 -0.087891 0.078125 -0.127073 0.000000 0.000000 0.000000 -4.677738 -0.068132 0.015340 3.984390 -0.127079 0.043340 5.976537 0.253639 -0.050700 0.482866 9.585838 -3.733542 -2.801461 9.365975 0.402888 2.048383 -0.283597 3.767893 0.011373 -6.108598 -3.354085 -0.240705 -9.014163 -3.726590 5.374786 -17.555834 10.707447 -1.659548 0.239038 -5.135845 2.967299 6.270061 -3.108083 -4.334652 4.100351 0.363771 15.659812 -3.837401 -1.746140 -11.201155 -0.000579 -0.043679 -3.993020 -5.925387 -5.578790 15.567606 3.160390 -9.944628 -10.329242 -0.373043 4.112062 
1.070635 49.321808 -1.485170 -0.068360 0.175781 -0.000210 0.000000 0.000000 0.000000 -4.707064 -0.214119 0.007865 4.013679 -0.133744 -0.166557 5.810547 -0.009754 -0.116713 0.094242 9.239927 -3.733261 -2.430735 9.718158 0.303933 1.325978 0.053587 5.214951 -0.916833 -6.202130 -3.277612 -0.480020 -8.841541 -3.772130 5.289423 -17.507637 10.496931 -1.678621 0.173900 -5.188356 2.839215 6.448740 -3.116638 -4.343031 4.011237 0.322516 15.628430 -3.843894 -1.735036 -11.181614 0.004048 -0.063078 -4.156706 -6.038447 -5.673016 15.798584 3.234421 -10.105526 -10.401096 -0.377301 4.067482 
1.040935 49.336159 -1.463323 -0.058594 0.205078 0.204868 0.000000 0.000000 0.000000 -4.746116 -0.175179 -0.131940 3.985461 -0.473357 -0.272249 6.025336 0.370718 -0.329192 -0.023207 8.573591 -3.750079 -2.089586 9.640313 0.136029 0.724752 0.231272 6.171304 -1.612589 -5.899929 -3.232571 -0.827958 -9.404817 -3.825624 5.866333 -17.377954 10.319453 -1.648015 0.175535 -5.226456 3.142033 6.309145 -3.096836 -4.251282 3.988039 0.269230 15.379869 -3.818467 -1.811110 -11.035104 0.009020 -0.093121 -3.915935 -5.976042 -5.598857 15.559648 3.112430 -9.999907 -10.438485 -0.378370 4.099894 
1.020421 49.314510 -1.464671 -0.078125 0.156250 0.390412 0.000000 0.000000 0.000000 -4.726595 -0.214113 -0.245969 3.995399 -0.406810 -0.349978 5.927678 0.370689 -0.280996 -0.187216 8.605000 -3.741160 -2.329659 9.200974 0.388125 1.071189 -0.092921 5.304525 0.895992 -6.271128 -3.427233 -0.912477 -9.026274 -3.813726 5.545909 -17.418465 10.523358 -1.724388 0.217714 -5.256153 3.339712 6.114727 -3.083879 -4.480114 4.070184 0.279912 15.774166 -3.778277 -2.049357 -11.191326 0.016617 -0.121936 -4.099855 -5.934315 -5.678991 15.884439 3.181850 -10.486189 -10.515443 -0.382029 4.131391 
1.002679 49.310360 -1.462078 -0.097657 0.195312 0.409823 0.000000 0.000000 0.000000 -4.726612 -0.262775 -0.271242 4.005744 -0.535272 -0.356514 5.986196 0.575571 -0.319278 -0.236993 8.569252 -3.727216 -2.368397 9.679622 0.482757 -0.513149 -0.101030 5.679101 -1.058471 -5.965793 -3.277418 -1.182618 -9.252960 -3.826511 5.898055 -17.202152 10.161621 -1.644871 0.152330 -5.335012 2.912236 6.374577 -3.111193 -4.438406 4.067751 0.209479 15.776904 -3.729869 -2.296741 -11.220541 0.011840 -0.156860 -4.058805 -5.950312 -5.688380 15.970922 3.171362 -10.335247 -10.642082 -0.374238 4.136554 
0.983425 49.332134 -1.462066 -0.185548 0.205077 0.438789 0.000000 0.000000 0.000000 -4.658286 -0.340668 -0.392164 4.064132 -0.459178 -0.450976 6.044865 0.380480 -0.212314 -0.362749 8.509468 -3.678383 -2.482710 8.702957 0.547184 1.529702 -0.360642 5.062288 1.010859 -6.704482 -3.435837 -1.379499 -8.887157 -3.780529 5.573467 -16.842682 9.952682 -1.711408 0.140249 -5.102906 3.034569 6.645494 -3.094884 -4.153603 4.036694 0.247279 15.437116 -3.737451 -2.175894 -11.074083 0.018762 -0.153375 -3.836380 -5.934220 -5.713861 15.662218 3.202578 -10.294292 -10.491199 -0.387125 4.052876 
0.973609 49.327232 -1.467099 -0.214846 0.253904 0.262720 0.000000 0.000000 0.000000 -4.658317 -0.399068 -0.397171 4.083294 -0.460513 -0.409575 6.298796 0.302489 -0.139127 -0.523429 8.304568 -3.659224 -2.342767 8.918444 0.711457 1.396636 -0.339307 5.210294 1.362651 -6.507157 -3.466025 -1.344019 -8.889384 -3.764362 5.494437 -16.667339 9.897831 -1.604395 0.137611 -5.089888 3.132051 6.660703 -3.078869 -4.159142 4.002948 0.246979 15.454054 -3.749204 -1.886528 -11.064232 0.034260 -0.210767 -3.922893 -5.970964 -5.706502 15.806409 3.172226 -10.229506 -10.510797 -0.375650 4.036989 
0.964422 49.335407 -1.468963 -0.185547 0.136718 -0.078568 0.000000 0.000000 0.000000 -4.658286 -0.340668 -0.265211 4.023654 -0.305001 -0.261011 6.328114 0.175643 -0.036276 -0.646485 8.575427 -3.646428 -2.623252 9.395863 0.480151 0.982201 -0.094286 5.257603 0.689255 -6.753114 -3.406733 -1.241533 -8.789687 -3.767148 5.452652 -16.530756 9.977778 -1.575573 0.183607 -5.047797 3.270396 6.648829 -3.070107 -4.119911 4.139480 0.357117 15.452701 -3.768485 -1.489545 -11.122574 0.028121 -0.278903 -3.863408 -5.832900 -5.612590 15.561401 3.201043 -10.008638 -10.378950 -0.378940 3.947557 
0.965682 49.328487 -1.473430 -0.078125 0.078125 -0.244247 0.000000 0.000000 0.000000 -4.726609 -0.253043 -0.301344 3.936737 -0.389546 -0.242558 6.308558 0.322007 -0.091030 -0.319284 8.545483 -3.728687 -2.698370 9.854053 0.200648 -0.884077 0.056065 5.120639 -0.885886 -6.894876 -3.262026 -1.094229 -8.994370 -3.818039 5.657725 -16.617476 10.143427 -1.442726 0.203054 -4.915797 2.151252 6.273025 -3.179079 -4.352249 4.176675 0.395590 15.628641 -3.775646 -1.298535 -11.171371 0.024227 -0.280863 -4.051498 -5.817776 -5.635382 15.620267 3.289169 -9.945124 -10.370890 -0.355425 3.883168 
0.962158 49.301682 -1.487512 0.156250 -0.078125 -0.302961 0.000000 0.000000 0.000000 -4.843781 -0.204346 -0.422137 3.770629 -0.263357 -0.308311 6.201138 0.302468 -0.022455 -0.183159 8.832722 -3.859806 -3.120600 10.045826 -0.819530 -1.752315 0.581061 5.644427 -0.873304 -7.608256 -3.255450 -1.209190 -8.798663 -3.932623 5.668078 -16.353832 10.045093 -1.488028 0.195430 -4.428506 0.405297 5.546178 -3.345354 -4.801620 4.352687 0.405285 16.190437 -3.740427 -1.577678 -11.503457 0.018970 -0.262019 -4.482164 -5.673243 -5.541145 15.870236 3.287427 -10.171417 -10.448153 -0.361536 3.913471 
0.958002 49.289722 -1.485976 0.156250 -0.107421 -0.469061 0.000000 0.000000 0.000000 -4.804718 -0.204358 -0.451573 3.663465 -0.291800 -0.293151 6.376865 0.507429 -0.029494 -0.171388 8.538078 -3.819687 -2.759614 10.153802 -0.957611 -2.113686 0.681568 5.131982 -1.001493 -7.938506 -3.229538 -1.086015 -8.709162 -3.881396 5.668609 -16.314804 10.006006 -1.472822 0.134482 -3.716827 -0.783120 5.544147 -3.437628 -4.988677 4.402923 0.334185 16.412703 -3.622824 -1.686117 -11.542073 0.042397 -0.391539 -4.537123 -5.648372 -5.482262 16.022530 3.299739 -9.769929 -10.549431 -0.356520 3.851937 
0.945798 49.320183 -1.478451 -0.019531 -0.068359 -0.634742 0.000000 0.000000 0.000000 -4.648494 -0.282272 -0.445799 3.711822 -0.282896 -0.240422 6.445218 0.536728 0.038367 -0.219896 8.392717 -3.669947 -2.644231 10.739867 -1.011710 -3.589459 0.851096 5.004661 -1.731461 -7.579429 -3.172052 -1.042570 -8.487997 -3.728914 5.387776 -16.286726 10.207819 -1.511100 0.212151 -3.695017 -1.288201 5.611563 -3.477210 -4.465114 4.299424 0.392348 15.907578 -3.678894 -1.131274 -11.385594 0.016819 -0.393260 -4.237755 -5.643615 -5.525761 15.622729 3.309538 -9.864681 -10.287121 -0.345719 3.789707 
0.939504 49.328232 -1.477078 0.019531 0.058594 -0.722626 0.000000 0.000000 0.000000 -4.677827 -0.360125 -0.390455 3.751745 -0.485689 -0.185534 6.288898 0.683036 -0.027605 -0.291460 7.957186 -3.696302 -2.303592 10.368800 -1.266750 -3.174269 0.967860 5.567785 -1.635786 -8.376074 -3.152638 -1.141333 -8.765324 -3.770443 5.452452 -16.247124 10.438726 -1.463773 0.284214 -3.602562 -1.833870 5.539265 -3.519430 -4.371649 4.156992 0.287849 15.631122 -3.661961 -0.798195 -11.248751 0.057606 -0.470505 -4.276872 -5.750902 -5.509957 15.644200 3.242083 -9.783886 -10.297197 -0.370135 3.821202 
0.938622 49.323952 -1.483182 -0.068359 0.058594 -0.712960 0.000000 0.000000 0.000000 -4.589955 -0.399107 -0.475773 3.712992 -0.497786 -0.216543 6.493991 0.683131 0.013902 -0.274301 8.063299 -3.611428 -2.485511 10.269987 -1.550588 -3.626419 1.022882 5.412521 -1.451845 -7.984038 -3.182138 -1.084269 -8.739690 -3.674467 5.367193 -16.277023 10.247836 -1.392815 0.175639 -3.438919 -1.560071 5.399403 -3.493147 -4.281927 4.174710 0.324234 15.690604 -3.678830 -1.008862 -11.307576 0.054840 -0.428539 -4.217463 -5.769059 -5.528929 15.711622 3.270939 -9.609911 -10.357095 -0.357597 3.784645 
